<mxfile host="Electron" modified="2023-05-11T03:47:36.696Z" agent="Mozilla/5.0 (Windows NT 10.0; Win64; x64) AppleWebKit/537.36 (KHTML, like Gecko) draw.io/21.2.8 Chrome/112.0.5615.165 Electron/24.2.0 Safari/537.36" etag="r_0ULbI4hdG4U2Nk0IxH" version="21.2.8" type="device">
  <diagram name="페이지-1" id="loX1GWIg0YwVXHlp89LK">
    <mxGraphModel dx="521" dy="2959" grid="1" gridSize="10" guides="1" tooltips="1" connect="1" arrows="1" fold="1" page="1" pageScale="1" pageWidth="827" pageHeight="1169" math="0" shadow="0">
      <root>
        <mxCell id="0" />
        <mxCell id="1" parent="0" />
        <mxCell id="Klk6fiYFn2TE_CD5GW6z-8" value="&lt;font style=&quot;font-size: 24px;&quot;&gt;지원정보통계(일반회원)&lt;/font&gt;" style="shape=umlFrame;whiteSpace=wrap;html=1;pointerEvents=0;width=320;height=70;" parent="1" vertex="1">
          <mxGeometry x="30" y="-600" width="1750" height="610" as="geometry" />
        </mxCell>
        <mxCell id="Klk6fiYFn2TE_CD5GW6z-9" value="&lt;font style=&quot;font-size: 14px;&quot;&gt;:EmploymentInquiryAndApplyUI&lt;/font&gt;" style="rounded=0;whiteSpace=wrap;html=1;" parent="1" vertex="1">
          <mxGeometry x="526" y="-442.5" width="250" height="85" as="geometry" />
        </mxCell>
        <mxCell id="Klk6fiYFn2TE_CD5GW6z-10" value="&lt;font style=&quot;font-size: 18px;&quot;&gt;&lt;font style=&quot;font-size: 18px;&quot;&gt;:&lt;/font&gt;&lt;/font&gt;EmploymentInquiryAndApply" style="rounded=0;whiteSpace=wrap;html=1;" parent="1" vertex="1">
          <mxGeometry x="1100" y="-442.5" width="250" height="85" as="geometry" />
        </mxCell>
        <mxCell id="Klk6fiYFn2TE_CD5GW6z-11" value="&lt;font style=&quot;font-size: 18px;&quot;&gt;:GeneralMember&lt;/font&gt;" style="shape=umlActor;verticalLabelPosition=bottom;verticalAlign=top;html=1;outlineConnect=0;" parent="1" vertex="1">
          <mxGeometry x="60" y="-510" width="110" height="220" as="geometry" />
        </mxCell>
        <mxCell id="Klk6fiYFn2TE_CD5GW6z-12" value="" style="endArrow=none;html=1;rounded=0;entryX=0;entryY=0.5;entryDx=0;entryDy=0;" parent="1" source="Klk6fiYFn2TE_CD5GW6z-11" target="Klk6fiYFn2TE_CD5GW6z-9" edge="1">
          <mxGeometry width="50" height="50" relative="1" as="geometry">
            <mxPoint x="890" y="-202.5" as="sourcePoint" />
            <mxPoint x="940" y="-252.5" as="targetPoint" />
          </mxGeometry>
        </mxCell>
        <mxCell id="Klk6fiYFn2TE_CD5GW6z-13" value="" style="endArrow=none;html=1;rounded=0;entryX=1;entryY=0.5;entryDx=0;entryDy=0;exitX=0;exitY=0.5;exitDx=0;exitDy=0;" parent="1" source="Klk6fiYFn2TE_CD5GW6z-10" target="Klk6fiYFn2TE_CD5GW6z-9" edge="1">
          <mxGeometry width="50" height="50" relative="1" as="geometry">
            <mxPoint x="890" y="-202.5" as="sourcePoint" />
            <mxPoint x="940" y="-252.5" as="targetPoint" />
          </mxGeometry>
        </mxCell>
        <mxCell id="Klk6fiYFn2TE_CD5GW6z-14" value="&lt;font style=&quot;font-size: 18px;&quot;&gt;2: searchApplynum_monthly&lt;/font&gt;&lt;span style=&quot;font-size: 18px; background-color: initial;&quot;&gt;()&lt;/span&gt;" style="text;html=1;align=center;verticalAlign=middle;resizable=0;points=[];autosize=1;strokeColor=none;fillColor=none;" parent="1" vertex="1">
          <mxGeometry x="217" y="-482.5" width="260" height="40" as="geometry" />
        </mxCell>
        <mxCell id="Klk6fiYFn2TE_CD5GW6z-15" value="" style="endArrow=classic;html=1;rounded=0;" parent="1" edge="1">
          <mxGeometry width="50" height="50" relative="1" as="geometry">
            <mxPoint x="212" y="-422.5" as="sourcePoint" />
            <mxPoint x="492" y="-422.5" as="targetPoint" />
          </mxGeometry>
        </mxCell>
        <mxCell id="Klk6fiYFn2TE_CD5GW6z-16" value="&lt;font style=&quot;font-size: 18px;&quot;&gt;2.1: &lt;/font&gt;&lt;font style=&quot;font-size: 18px;&quot;&gt;&lt;font style=&quot;font-size: 18px;&quot;&gt;showApplynum_monthly&lt;/font&gt;()&lt;/font&gt;" style="text;html=1;align=center;verticalAlign=middle;resizable=0;points=[];autosize=1;strokeColor=none;fillColor=none;" parent="1" vertex="1">
          <mxGeometry x="807" y="-482.5" width="270" height="40" as="geometry" />
        </mxCell>
        <mxCell id="tLUNX5iuWk-i-MI4ypMs-38" style="edgeStyle=orthogonalEdgeStyle;rounded=0;orthogonalLoop=1;jettySize=auto;html=1;" parent="1" edge="1">
          <mxGeometry relative="1" as="geometry">
            <mxPoint x="1260" y="-110" as="sourcePoint" />
            <mxPoint x="1260" y="-320" as="targetPoint" />
          </mxGeometry>
        </mxCell>
        <mxCell id="Klk6fiYFn2TE_CD5GW6z-17" value="&lt;font style=&quot;font-size: 19px;&quot;&gt;:currentApply&lt;/font&gt;" style="rounded=0;whiteSpace=wrap;html=1;" parent="1" vertex="1">
          <mxGeometry x="1115" y="-82.5" width="220" height="60" as="geometry" />
        </mxCell>
        <mxCell id="Klk6fiYFn2TE_CD5GW6z-18" value="" style="endArrow=none;html=1;rounded=0;entryX=0.5;entryY=1;entryDx=0;entryDy=0;exitX=0.5;exitY=0;exitDx=0;exitDy=0;" parent="1" source="Klk6fiYFn2TE_CD5GW6z-17" target="Klk6fiYFn2TE_CD5GW6z-10" edge="1">
          <mxGeometry width="50" height="50" relative="1" as="geometry">
            <mxPoint x="910" y="-202.5" as="sourcePoint" />
            <mxPoint x="960" y="-252.5" as="targetPoint" />
          </mxGeometry>
        </mxCell>
        <mxCell id="Klk6fiYFn2TE_CD5GW6z-19" value="" style="endArrow=classic;html=1;rounded=0;" parent="1" edge="1">
          <mxGeometry width="50" height="50" relative="1" as="geometry">
            <mxPoint x="1200" y="-332.5" as="sourcePoint" />
            <mxPoint x="1200" y="-112.5" as="targetPoint" />
          </mxGeometry>
        </mxCell>
        <mxCell id="Klk6fiYFn2TE_CD5GW6z-23" value="" style="endArrow=classic;html=1;rounded=0;" parent="1" edge="1">
          <mxGeometry width="50" height="50" relative="1" as="geometry">
            <mxPoint x="820" y="-422.5" as="sourcePoint" />
            <mxPoint x="1090" y="-422.5" as="targetPoint" />
          </mxGeometry>
        </mxCell>
        <mxCell id="D1PXQj3oYHvgcD6MQ4wq-27" value="&lt;font style=&quot;font-size: 18px;&quot;&gt;3: getApplynum()&lt;/font&gt;" style="text;html=1;align=center;verticalAlign=middle;resizable=0;points=[];autosize=1;strokeColor=none;fillColor=none;" parent="1" vertex="1">
          <mxGeometry x="1030" y="-260" width="160" height="40" as="geometry" />
        </mxCell>
        <mxCell id="D1PXQj3oYHvgcD6MQ4wq-28" value="&lt;font style=&quot;font-size: 18px;&quot;&gt;1: startInterface()&lt;/font&gt;" style="text;html=1;align=center;verticalAlign=middle;resizable=0;points=[];autosize=1;strokeColor=none;fillColor=none;" parent="1" vertex="1">
          <mxGeometry x="872" y="-380" width="160" height="40" as="geometry" />
        </mxCell>
        <mxCell id="D1PXQj3oYHvgcD6MQ4wq-32" value="" style="endArrow=classic;html=1;rounded=0;" parent="1" edge="1">
          <mxGeometry width="50" height="50" relative="1" as="geometry">
            <mxPoint x="1070" y="-380" as="sourcePoint" />
            <mxPoint x="820" y="-380" as="targetPoint" />
          </mxGeometry>
        </mxCell>
        <mxCell id="tLUNX5iuWk-i-MI4ypMs-2" value="&lt;span style=&quot;font-size: 24px;&quot;&gt;지원정보통계(회사회원)&lt;/span&gt;" style="shape=umlFrame;whiteSpace=wrap;html=1;pointerEvents=0;width=300;height=80;" parent="1" vertex="1">
          <mxGeometry x="40" y="-1400" width="2050" height="720" as="geometry" />
        </mxCell>
        <mxCell id="tLUNX5iuWk-i-MI4ypMs-3" value="&lt;font style=&quot;font-size: 18px;&quot;&gt;:CompanyMember&lt;/font&gt;" style="shape=umlActor;verticalLabelPosition=bottom;verticalAlign=top;html=1;outlineConnect=0;" parent="1" vertex="1">
          <mxGeometry x="70" y="-1290" width="110" height="220" as="geometry" />
        </mxCell>
        <mxCell id="tLUNX5iuWk-i-MI4ypMs-4" value="&lt;font style=&quot;font-size: 18px;&quot;&gt;:EmploymentinfoUI&lt;/font&gt;" style="rounded=0;whiteSpace=wrap;html=1;" parent="1" vertex="1">
          <mxGeometry x="530" y="-1222.5" width="260" height="85" as="geometry" />
        </mxCell>
        <mxCell id="tLUNX5iuWk-i-MI4ypMs-5" value="&lt;font style=&quot;font-size: 18px;&quot;&gt;:Employmentinfo&lt;/font&gt;" style="rounded=0;whiteSpace=wrap;html=1;" parent="1" vertex="1">
          <mxGeometry x="1190" y="-1222.5" width="310" height="85" as="geometry" />
        </mxCell>
        <mxCell id="tLUNX5iuWk-i-MI4ypMs-6" value="" style="endArrow=none;html=1;rounded=0;entryX=0;entryY=0.5;entryDx=0;entryDy=0;" parent="1" source="tLUNX5iuWk-i-MI4ypMs-3" target="tLUNX5iuWk-i-MI4ypMs-4" edge="1">
          <mxGeometry width="50" height="50" relative="1" as="geometry">
            <mxPoint x="330" y="-1142.5" as="sourcePoint" />
            <mxPoint x="380" y="-1192.5" as="targetPoint" />
          </mxGeometry>
        </mxCell>
        <mxCell id="tLUNX5iuWk-i-MI4ypMs-7" value="" style="endArrow=none;html=1;rounded=0;entryX=0;entryY=0.5;entryDx=0;entryDy=0;exitX=1;exitY=0.5;exitDx=0;exitDy=0;" parent="1" source="tLUNX5iuWk-i-MI4ypMs-4" target="tLUNX5iuWk-i-MI4ypMs-5" edge="1">
          <mxGeometry width="50" height="50" relative="1" as="geometry">
            <mxPoint x="900" y="-1160" as="sourcePoint" />
            <mxPoint x="950" y="-1210" as="targetPoint" />
          </mxGeometry>
        </mxCell>
        <mxCell id="tLUNX5iuWk-i-MI4ypMs-9" value="&lt;font style=&quot;font-size: 18px;&quot;&gt;:EmploymentDetails&lt;/font&gt;" style="rounded=0;whiteSpace=wrap;html=1;" parent="1" vertex="1">
          <mxGeometry x="1235" y="-790" width="220" height="60" as="geometry" />
        </mxCell>
        <mxCell id="tLUNX5iuWk-i-MI4ypMs-11" value="" style="endArrow=none;html=1;rounded=0;exitX=0.5;exitY=0;exitDx=0;exitDy=0;entryX=0.5;entryY=1;entryDx=0;entryDy=0;" parent="1" source="tLUNX5iuWk-i-MI4ypMs-9" target="tLUNX5iuWk-i-MI4ypMs-5" edge="1">
          <mxGeometry width="50" height="50" relative="1" as="geometry">
            <mxPoint x="1050" y="-860" as="sourcePoint" />
            <mxPoint x="1170" y="-1130" as="targetPoint" />
          </mxGeometry>
        </mxCell>
        <mxCell id="tLUNX5iuWk-i-MI4ypMs-16" value="" style="endArrow=classic;html=1;rounded=0;" parent="1" edge="1">
          <mxGeometry width="50" height="50" relative="1" as="geometry">
            <mxPoint x="220" y="-1200" as="sourcePoint" />
            <mxPoint x="470" y="-1200" as="targetPoint" />
          </mxGeometry>
        </mxCell>
        <mxCell id="tLUNX5iuWk-i-MI4ypMs-17" value="" style="endArrow=classic;html=1;rounded=0;" parent="1" edge="1">
          <mxGeometry width="50" height="50" relative="1" as="geometry">
            <mxPoint x="1180" y="-1160" as="sourcePoint" />
            <mxPoint x="810" y="-1160" as="targetPoint" />
          </mxGeometry>
        </mxCell>
        <mxCell id="tLUNX5iuWk-i-MI4ypMs-18" value="&lt;font style=&quot;font-size: 18px;&quot;&gt;1: startInterface()&lt;/font&gt;" style="text;html=1;align=center;verticalAlign=middle;resizable=0;points=[];autosize=1;strokeColor=none;fillColor=none;" parent="1" vertex="1">
          <mxGeometry x="920" y="-1150" width="160" height="40" as="geometry" />
        </mxCell>
        <mxCell id="tLUNX5iuWk-i-MI4ypMs-19" value="&lt;font style=&quot;border-color: var(--border-color); font-size: 18px;&quot;&gt;2: searcEmployment_bypart&lt;/font&gt;()" style="text;html=1;align=center;verticalAlign=middle;resizable=0;points=[];autosize=1;strokeColor=none;fillColor=none;" parent="1" vertex="1">
          <mxGeometry x="210" y="-1262.5" width="260" height="40" as="geometry" />
        </mxCell>
        <mxCell id="tLUNX5iuWk-i-MI4ypMs-26" value="&lt;font style=&quot;font-size: 18px;&quot;&gt;3.1: Applysum_monthly()&lt;/font&gt;" style="text;html=1;align=center;verticalAlign=middle;resizable=0;points=[];autosize=1;strokeColor=none;fillColor=none;" parent="1" vertex="1">
          <mxGeometry x="1310" y="-240" width="220" height="40" as="geometry" />
        </mxCell>
        <mxCell id="tLUNX5iuWk-i-MI4ypMs-27" value="&lt;font style=&quot;font-size: 18px;&quot;&gt;2.1: show&lt;/font&gt;&lt;font style=&quot;border-color: var(--border-color); font-size: 18px;&quot;&gt;Employment_bypart()&lt;/font&gt;" style="text;html=1;align=center;verticalAlign=middle;resizable=0;points=[];autosize=1;strokeColor=none;fillColor=none;" parent="1" vertex="1">
          <mxGeometry x="857" y="-1262.5" width="270" height="40" as="geometry" />
        </mxCell>
        <mxCell id="tLUNX5iuWk-i-MI4ypMs-28" value="&lt;font style=&quot;font-size: 18px;&quot;&gt;3: get&lt;/font&gt;&lt;font style=&quot;border-color: var(--border-color); font-size: 18px;&quot;&gt;EmploymentDetails_bypart()&lt;/font&gt;" style="text;html=1;align=center;verticalAlign=middle;resizable=0;points=[];autosize=1;strokeColor=none;fillColor=none;" parent="1" vertex="1">
          <mxGeometry x="995" y="-1020" width="300" height="40" as="geometry" />
        </mxCell>
        <mxCell id="tLUNX5iuWk-i-MI4ypMs-35" value="" style="endArrow=classic;html=1;rounded=0;" parent="1" edge="1">
          <mxGeometry width="50" height="50" relative="1" as="geometry">
            <mxPoint x="807" y="-1210" as="sourcePoint" />
            <mxPoint x="1177" y="-1210" as="targetPoint" />
          </mxGeometry>
        </mxCell>
        <mxCell id="tLUNX5iuWk-i-MI4ypMs-36" value="&lt;font style=&quot;font-size: 18px;&quot;&gt;3.1: &lt;/font&gt;&lt;font style=&quot;border-color: var(--border-color); font-size: 18px;&quot;&gt;EmploymentDetailsSum_bypart()&lt;/font&gt;" style="text;html=1;align=center;verticalAlign=middle;resizable=0;points=[];autosize=1;strokeColor=none;fillColor=none;" parent="1" vertex="1">
          <mxGeometry x="1390" y="-1040" width="320" height="40" as="geometry" />
        </mxCell>
        <mxCell id="tLUNX5iuWk-i-MI4ypMs-39" style="edgeStyle=orthogonalEdgeStyle;rounded=0;orthogonalLoop=1;jettySize=auto;html=1;" parent="1" edge="1">
          <mxGeometry relative="1" as="geometry">
            <mxPoint x="1375" y="-880" as="sourcePoint" />
            <mxPoint x="1375" y="-1090" as="targetPoint" />
          </mxGeometry>
        </mxCell>
        <mxCell id="tLUNX5iuWk-i-MI4ypMs-40" value="" style="endArrow=classic;html=1;rounded=0;" parent="1" edge="1">
          <mxGeometry width="50" height="50" relative="1" as="geometry">
            <mxPoint x="1310" y="-1080" as="sourcePoint" />
            <mxPoint x="1310" y="-860" as="targetPoint" />
          </mxGeometry>
        </mxCell>
        <mxCell id="tLUNX5iuWk-i-MI4ypMs-41" value="&lt;font style=&quot;font-size: 24px;&quot;&gt;지원횟수출력(일반회원)&lt;/font&gt;" style="shape=umlFrame;whiteSpace=wrap;html=1;pointerEvents=0;width=320;height=70;" parent="1" vertex="1">
          <mxGeometry x="40" y="40" width="1750" height="610" as="geometry" />
        </mxCell>
        <mxCell id="tLUNX5iuWk-i-MI4ypMs-42" value="&lt;font style=&quot;font-size: 14px;&quot;&gt;:EmploymentInquiryAndApplyUI&lt;/font&gt;" style="rounded=0;whiteSpace=wrap;html=1;" parent="1" vertex="1">
          <mxGeometry x="536" y="197.5" width="250" height="85" as="geometry" />
        </mxCell>
        <mxCell id="tLUNX5iuWk-i-MI4ypMs-43" value="&lt;font style=&quot;font-size: 18px;&quot;&gt;&lt;font style=&quot;font-size: 18px;&quot;&gt;:&lt;/font&gt;&lt;/font&gt;EmploymentInquiryAndApply" style="rounded=0;whiteSpace=wrap;html=1;" parent="1" vertex="1">
          <mxGeometry x="1110" y="197.5" width="250" height="85" as="geometry" />
        </mxCell>
        <mxCell id="tLUNX5iuWk-i-MI4ypMs-44" value="&lt;font style=&quot;font-size: 18px;&quot;&gt;:GeneralMember&lt;/font&gt;" style="shape=umlActor;verticalLabelPosition=bottom;verticalAlign=top;html=1;outlineConnect=0;" parent="1" vertex="1">
          <mxGeometry x="70" y="130" width="110" height="220" as="geometry" />
        </mxCell>
        <mxCell id="tLUNX5iuWk-i-MI4ypMs-45" value="" style="endArrow=none;html=1;rounded=0;entryX=0;entryY=0.5;entryDx=0;entryDy=0;" parent="1" source="tLUNX5iuWk-i-MI4ypMs-44" target="tLUNX5iuWk-i-MI4ypMs-42" edge="1">
          <mxGeometry width="50" height="50" relative="1" as="geometry">
            <mxPoint x="900" y="437.5" as="sourcePoint" />
            <mxPoint x="950" y="387.5" as="targetPoint" />
          </mxGeometry>
        </mxCell>
        <mxCell id="tLUNX5iuWk-i-MI4ypMs-46" value="" style="endArrow=none;html=1;rounded=0;entryX=1;entryY=0.5;entryDx=0;entryDy=0;exitX=0;exitY=0.5;exitDx=0;exitDy=0;" parent="1" source="tLUNX5iuWk-i-MI4ypMs-43" target="tLUNX5iuWk-i-MI4ypMs-42" edge="1">
          <mxGeometry width="50" height="50" relative="1" as="geometry">
            <mxPoint x="900" y="437.5" as="sourcePoint" />
            <mxPoint x="950" y="387.5" as="targetPoint" />
          </mxGeometry>
        </mxCell>
        <mxCell id="tLUNX5iuWk-i-MI4ypMs-47" value="&lt;font style=&quot;font-size: 18px;&quot;&gt;2: searchApplynum_monthly&lt;/font&gt;&lt;span style=&quot;font-size: 18px; background-color: initial;&quot;&gt;()&lt;/span&gt;" style="text;html=1;align=center;verticalAlign=middle;resizable=0;points=[];autosize=1;strokeColor=none;fillColor=none;" parent="1" vertex="1">
          <mxGeometry x="227" y="157.5" width="260" height="40" as="geometry" />
        </mxCell>
        <mxCell id="tLUNX5iuWk-i-MI4ypMs-48" value="" style="endArrow=classic;html=1;rounded=0;" parent="1" edge="1">
          <mxGeometry width="50" height="50" relative="1" as="geometry">
            <mxPoint x="222" y="217.5" as="sourcePoint" />
            <mxPoint x="502" y="217.5" as="targetPoint" />
          </mxGeometry>
        </mxCell>
        <mxCell id="tLUNX5iuWk-i-MI4ypMs-49" value="&lt;font style=&quot;font-size: 18px;&quot;&gt;2.1: &lt;/font&gt;&lt;font style=&quot;font-size: 18px;&quot;&gt;&lt;font style=&quot;font-size: 18px;&quot;&gt;showApplynum_monthly&lt;/font&gt;()&lt;/font&gt;" style="text;html=1;align=center;verticalAlign=middle;resizable=0;points=[];autosize=1;strokeColor=none;fillColor=none;" parent="1" vertex="1">
          <mxGeometry x="817" y="157.5" width="270" height="40" as="geometry" />
        </mxCell>
        <mxCell id="tLUNX5iuWk-i-MI4ypMs-50" style="edgeStyle=orthogonalEdgeStyle;rounded=0;orthogonalLoop=1;jettySize=auto;html=1;" parent="1" edge="1">
          <mxGeometry relative="1" as="geometry">
            <mxPoint x="1270" y="530" as="sourcePoint" />
            <mxPoint x="1270" y="320" as="targetPoint" />
          </mxGeometry>
        </mxCell>
        <mxCell id="tLUNX5iuWk-i-MI4ypMs-51" value="&lt;font style=&quot;font-size: 19px;&quot;&gt;:currentApply&lt;/font&gt;" style="rounded=0;whiteSpace=wrap;html=1;" parent="1" vertex="1">
          <mxGeometry x="1125" y="557.5" width="220" height="60" as="geometry" />
        </mxCell>
        <mxCell id="tLUNX5iuWk-i-MI4ypMs-52" value="" style="endArrow=none;html=1;rounded=0;entryX=0.5;entryY=1;entryDx=0;entryDy=0;exitX=0.5;exitY=0;exitDx=0;exitDy=0;" parent="1" source="tLUNX5iuWk-i-MI4ypMs-51" target="tLUNX5iuWk-i-MI4ypMs-43" edge="1">
          <mxGeometry width="50" height="50" relative="1" as="geometry">
            <mxPoint x="920" y="437.5" as="sourcePoint" />
            <mxPoint x="970" y="387.5" as="targetPoint" />
          </mxGeometry>
        </mxCell>
        <mxCell id="tLUNX5iuWk-i-MI4ypMs-53" value="" style="endArrow=classic;html=1;rounded=0;" parent="1" edge="1">
          <mxGeometry width="50" height="50" relative="1" as="geometry">
            <mxPoint x="1210" y="307.5" as="sourcePoint" />
            <mxPoint x="1210" y="527.5" as="targetPoint" />
          </mxGeometry>
        </mxCell>
        <mxCell id="tLUNX5iuWk-i-MI4ypMs-54" value="" style="endArrow=classic;html=1;rounded=0;" parent="1" edge="1">
          <mxGeometry width="50" height="50" relative="1" as="geometry">
            <mxPoint x="830" y="217.5" as="sourcePoint" />
            <mxPoint x="1100" y="217.5" as="targetPoint" />
          </mxGeometry>
        </mxCell>
        <mxCell id="tLUNX5iuWk-i-MI4ypMs-55" value="&lt;font style=&quot;font-size: 18px;&quot;&gt;3: getApplynum()&lt;/font&gt;" style="text;html=1;align=center;verticalAlign=middle;resizable=0;points=[];autosize=1;strokeColor=none;fillColor=none;" parent="1" vertex="1">
          <mxGeometry x="1040" y="380" width="160" height="40" as="geometry" />
        </mxCell>
        <mxCell id="tLUNX5iuWk-i-MI4ypMs-56" value="&lt;font style=&quot;font-size: 18px;&quot;&gt;1: startInterface()&lt;/font&gt;" style="text;html=1;align=center;verticalAlign=middle;resizable=0;points=[];autosize=1;strokeColor=none;fillColor=none;" parent="1" vertex="1">
          <mxGeometry x="882" y="260" width="160" height="40" as="geometry" />
        </mxCell>
        <mxCell id="tLUNX5iuWk-i-MI4ypMs-57" value="" style="endArrow=classic;html=1;rounded=0;" parent="1" edge="1">
          <mxGeometry width="50" height="50" relative="1" as="geometry">
            <mxPoint x="1080" y="260" as="sourcePoint" />
            <mxPoint x="830" y="260" as="targetPoint" />
          </mxGeometry>
        </mxCell>
        <mxCell id="tLUNX5iuWk-i-MI4ypMs-58" value="&lt;font style=&quot;font-size: 18px;&quot;&gt;3.1: Applysum_monthly()&lt;/font&gt;" style="text;html=1;align=center;verticalAlign=middle;resizable=0;points=[];autosize=1;strokeColor=none;fillColor=none;" parent="1" vertex="1">
          <mxGeometry x="1320" y="400" width="220" height="40" as="geometry" />
        </mxCell>
      </root>
    </mxGraphModel>
  </diagram>
</mxfile>
